# xmcd CD database file
# Copyright (C) 1996 Ti Kan
#
# Track frame offsets:
#	150
#	15692
#	33207
#	47807
#	65907
#	80570
#	96167
#	113145
#	125560
#	140715
#
# Disc length: 2054 seconds
#
# Revision: 1
# Processed by: cddbd v1.4b41PL1 Copyright (c) Steve Scherf et al.
# Submitted via: EasyCD 2.21 - (C) 1996 Greg Leichner
#
DISCID=8d08040a
DTITLE=Conway Twitty - Final Touches
DYEAR=1900
DGENRE=
TTITLE0=Two Timin' Two Stepper
TTITLE1=I Hurt For You
TTITLE2=Don't It Make You Lonely
TTITLE3=I'm The Only Thing (I'll Hold Against You)
TTITLE4=I Don't Love You
TTITLE5=The Likes Of Me
TTITLE6=An Old Memory Like Me
TTITLE7=Final Touches
TTITLE8=You Are To Me
TTITLE9=You Ought To Try It Sometime
EXTD=
EXTT0=
EXTT1=
EXTT2=
EXTT3=
EXTT4=
EXTT5=
EXTT6=
EXTT7=
EXTT8=
EXTT9=
PLAYORDER=
